<svg width="524" height="213" viewBox="0 0 524 213" fill="none" xmlns="http://www.w3.org/2000/svg">
<path d="M339.573 77.1594C339.704 77.2449 339.812 77.3607 339.886 77.4964C339.961 77.6321 340 77.7836 340 77.9375V92C340 92.1872 339.942 92.3701 339.835 92.5252C339.727 92.6803 339.574 92.8004 339.396 92.87L339.038 92L339.396 92.87L339.39 92.8719L339.379 92.8775L339.335 92.8944C339.082 92.9924 338.827 93.0861 338.571 93.1756C338.063 93.3538 337.358 93.5938 336.558 93.8319C334.988 94.3044 332.944 94.8125 331.346 94.8125C329.717 94.8125 328.369 94.2875 327.196 93.8281L327.142 93.8094C325.923 93.3313 324.885 92.9375 323.654 92.9375C322.308 92.9375 320.504 93.3687 318.967 93.8319C318.279 94.0409 317.598 94.2691 316.923 94.5163V106.062C316.923 106.311 316.822 106.55 316.641 106.725C316.461 106.901 316.217 107 315.962 107C315.707 107 315.462 106.901 315.282 106.725C315.101 106.55 315 106.311 315 106.062V77.9375C315 77.6889 315.101 77.4504 315.282 77.2746C315.462 77.0988 315.707 77 315.962 77C316.217 77 316.461 77.0988 316.641 77.2746C316.822 77.4504 316.923 77.6889 316.923 77.9375V78.4663C317.358 78.3181 317.877 78.1475 318.442 77.9788C320.012 77.51 322.058 77 323.654 77C325.269 77 326.585 77.5194 327.733 77.9731L327.815 78.0069C329.012 78.4775 330.054 78.875 331.346 78.875C332.692 78.875 334.496 78.4438 336.033 77.9806C336.908 77.714 337.774 77.4163 338.627 77.0881L338.663 77.075L338.671 77.0712H338.673" fill="#39619B"/>
<path d="M24.5731 178.159C24.7043 178.245 24.8119 178.361 24.8863 178.496C24.9608 178.632 24.9998 178.784 25 178.938V193C25 193.187 24.9424 193.37 24.8348 193.525C24.7272 193.68 24.5744 193.8 24.3962 193.87L24.0385 193L24.3962 193.87L24.3904 193.872L24.3788 193.878L24.3346 193.894C24.0818 193.992 23.8273 194.086 23.5712 194.176C23.0635 194.354 22.3577 194.594 21.5577 194.832C19.9885 195.304 17.9442 195.812 16.3462 195.812C14.7173 195.812 13.3692 195.288 12.1962 194.828L12.1423 194.809C10.9231 194.331 9.88461 193.938 8.65385 193.938C7.30769 193.938 5.50385 194.369 3.96731 194.832C3.27934 195.041 2.59765 195.269 1.92308 195.516V207.062C1.92308 207.311 1.82177 207.55 1.64145 207.725C1.46113 207.901 1.21655 208 0.961538 208C0.706523 208 0.461952 207.901 0.281628 207.725C0.101305 207.55 0 207.311 0 207.062V178.938C0 178.689 0.101305 178.45 0.281628 178.275C0.461952 178.099 0.706523 178 0.961538 178C1.21655 178 1.46113 178.099 1.64145 178.275C1.82177 178.45 1.92308 178.689 1.92308 178.938V179.466C2.35769 179.318 2.87692 179.148 3.44231 178.979C5.01154 178.51 7.05769 178 8.65385 178C10.2692 178 11.5846 178.519 12.7327 178.973L12.8154 179.007C14.0115 179.477 15.0538 179.875 16.3462 179.875C17.6923 179.875 19.4962 179.444 21.0327 178.981C21.9083 178.714 22.7736 178.416 23.6269 178.088L23.6635 178.075L23.6712 178.071H23.6731" fill="#39619B"/>
<path d="M202.573 0.159375C202.704 0.244945 202.812 0.360692 202.886 0.496399C202.961 0.632105 203 0.783597 203 0.9375V15C203 15.1872 202.942 15.3701 202.835 15.5252C202.727 15.6803 202.574 15.8004 202.396 15.87L202.038 15L202.396 15.87L202.39 15.8719L202.379 15.8775L202.335 15.8944C202.082 15.9924 201.827 16.0861 201.571 16.1756C201.063 16.3538 200.358 16.5938 199.558 16.8319C197.988 17.3044 195.944 17.8125 194.346 17.8125C192.717 17.8125 191.369 17.2875 190.196 16.8281L190.142 16.8094C188.923 16.3313 187.885 15.9375 186.654 15.9375C185.308 15.9375 183.504 16.3687 181.967 16.8319C181.279 17.0409 180.598 17.2691 179.923 17.5163V29.0625C179.923 29.3111 179.822 29.5496 179.641 29.7254C179.461 29.9012 179.217 30 178.962 30C178.707 30 178.462 29.9012 178.282 29.7254C178.101 29.5496 178 29.3111 178 29.0625V0.9375C178 0.68886 178.101 0.450403 178.282 0.274587C178.462 0.0987721 178.707 0 178.962 0C179.217 0 179.461 0.0987721 179.641 0.274587C179.822 0.450403 179.923 0.68886 179.923 0.9375V1.46625C180.358 1.31813 180.877 1.1475 181.442 0.97875C183.012 0.51 185.058 0 186.654 0C188.269 0 189.585 0.519375 190.733 0.973125L190.815 1.00688C192.012 1.4775 193.054 1.875 194.346 1.875C195.692 1.875 197.496 1.44375 199.033 0.980625C199.908 0.714023 200.774 0.416324 201.627 0.088125L201.663 0.075L201.671 0.07125H201.673" fill="#39619B"/>
<path d="M309.573 124.159C309.704 124.245 309.812 124.361 309.886 124.496C309.961 124.632 310 124.784 310 124.938V139C310 139.187 309.942 139.37 309.835 139.525C309.727 139.68 309.574 139.8 309.396 139.87L309.038 139L309.396 139.87L309.39 139.872L309.379 139.878L309.335 139.894C309.082 139.992 308.827 140.086 308.571 140.176C308.063 140.354 307.358 140.594 306.558 140.832C304.988 141.304 302.944 141.812 301.346 141.812C299.717 141.812 298.369 141.288 297.196 140.828L297.142 140.809C295.923 140.331 294.885 139.938 293.654 139.938C292.308 139.938 290.504 140.369 288.967 140.832C288.279 141.041 287.598 141.269 286.923 141.516V153.062C286.923 153.311 286.822 153.55 286.641 153.725C286.461 153.901 286.217 154 285.962 154C285.707 154 285.462 153.901 285.282 153.725C285.101 153.55 285 153.311 285 153.062V124.938C285 124.689 285.101 124.45 285.282 124.275C285.462 124.099 285.707 124 285.962 124C286.217 124 286.461 124.099 286.641 124.275C286.822 124.45 286.923 124.689 286.923 124.938V125.466C287.358 125.318 287.877 125.148 288.442 124.979C290.012 124.51 292.058 124 293.654 124C295.269 124 296.585 124.519 297.733 124.973L297.815 125.007C299.012 125.477 300.054 125.875 301.346 125.875C302.692 125.875 304.496 125.444 306.033 124.981C306.908 124.714 307.774 124.416 308.627 124.088L308.663 124.075L308.671 124.071H308.673" fill="#39619B"/>
<path d="M523.573 92.1594C523.704 92.2449 523.812 92.3607 523.886 92.4964C523.961 92.6321 524 92.7836 524 92.9375V107C524 107.187 523.942 107.37 523.835 107.525C523.727 107.68 523.574 107.8 523.396 107.87L523.038 107L523.396 107.87L523.39 107.872L523.379 107.878L523.335 107.894C523.082 107.992 522.827 108.086 522.571 108.176C522.063 108.354 521.358 108.594 520.558 108.832C518.988 109.304 516.944 109.812 515.346 109.812C513.717 109.812 512.369 109.288 511.196 108.828L511.142 108.809C509.923 108.331 508.885 107.938 507.654 107.938C506.308 107.938 504.504 108.369 502.967 108.832C502.279 109.041 501.598 109.269 500.923 109.516V121.062C500.923 121.311 500.822 121.55 500.641 121.725C500.461 121.901 500.217 122 499.962 122C499.707 122 499.462 121.901 499.282 121.725C499.101 121.55 499 121.311 499 121.062V92.9375C499 92.6889 499.101 92.4504 499.282 92.2746C499.462 92.0988 499.707 92 499.962 92C500.217 92 500.461 92.0988 500.641 92.2746C500.822 92.4504 500.923 92.6889 500.923 92.9375V93.4663C501.358 93.3181 501.877 93.1475 502.442 92.9788C504.012 92.51 506.058 92 507.654 92C509.269 92 510.585 92.5194 511.733 92.9731L511.815 93.0069C513.012 93.4775 514.054 93.875 515.346 93.875C516.692 93.875 518.496 93.4438 520.033 92.9806C520.908 92.714 521.774 92.4163 522.627 92.0881L522.663 92.075L522.671 92.0712H522.673" fill="#39619B"/>
<path d="M446.573 183.159C446.704 183.245 446.812 183.361 446.886 183.496C446.961 183.632 447 183.784 447 183.938V198C447 198.187 446.942 198.37 446.835 198.525C446.727 198.68 446.574 198.8 446.396 198.87L446.038 198L446.396 198.87L446.39 198.872L446.379 198.878L446.335 198.894C446.082 198.992 445.827 199.086 445.571 199.176C445.063 199.354 444.358 199.594 443.558 199.832C441.988 200.304 439.944 200.812 438.346 200.812C436.717 200.812 435.369 200.288 434.196 199.828L434.142 199.809C432.923 199.331 431.885 198.938 430.654 198.938C429.308 198.938 427.504 199.369 425.967 199.832C425.279 200.041 424.598 200.269 423.923 200.516V212.062C423.923 212.311 423.822 212.55 423.641 212.725C423.461 212.901 423.217 213 422.962 213C422.707 213 422.462 212.901 422.282 212.725C422.101 212.55 422 212.311 422 212.062V183.938C422 183.689 422.101 183.45 422.282 183.275C422.462 183.099 422.707 183 422.962 183C423.217 183 423.461 183.099 423.641 183.275C423.822 183.45 423.923 183.689 423.923 183.938V184.466C424.358 184.318 424.877 184.148 425.442 183.979C427.012 183.51 429.058 183 430.654 183C432.269 183 433.585 183.519 434.733 183.973L434.815 184.007C436.012 184.477 437.054 184.875 438.346 184.875C439.692 184.875 441.496 184.444 443.033 183.981C443.908 183.714 444.774 183.416 445.627 183.088L445.663 183.075L445.671 183.071H445.673" fill="#39619B"/>
</svg>
