<svg width="413" height="204" viewBox="0 0 413 204" fill="none" xmlns="http://www.w3.org/2000/svg">
<path d="M390.5 187.958H386.333V183.583H390.5V179.938H395.5V183.583H399.667V187.958H395.5V191.604H390.5V187.958ZM393 171.917L379.667 176.292V185.173C379.667 192.538 385.35 199.406 393 201.083C400.65 199.406 406.333 192.538 406.333 185.173V176.292L393 171.917Z" fill="#EC5863"/>
<path d="M17.5 121.958H13.3334V117.583H17.5V113.938H22.5V117.583H26.6667V121.958H22.5V125.604H17.5V121.958ZM20 105.917L6.66669 110.292V119.173C6.66669 126.538 12.35 133.406 20 135.083C27.65 133.406 33.3334 126.538 33.3334 119.173V110.292L20 105.917Z" fill="#EC5863"/>
<path d="M215.5 89.9584H211.333V85.5834H215.5V81.9375H220.5V85.5834H224.667V89.9584H220.5V93.6042H215.5V89.9584ZM218 73.9167L204.667 78.2917V87.1729C204.667 94.5375 210.35 101.406 218 103.083C225.65 101.406 231.333 94.5375 231.333 87.1729V78.2917L218 73.9167Z" fill="#EC5863"/>
<path d="M82.5 18.9584H78.3334V14.5834H82.5V10.9375H87.5V14.5834H91.6667V18.9584H87.5V22.6042H82.5V18.9584ZM85 2.91669L71.6667 7.29169V16.1729C71.6667 23.5375 77.35 30.4063 85 32.0834C92.65 30.4063 98.3334 23.5375 98.3334 16.1729V7.29169L85 2.91669Z" fill="#EC5863"/>
</svg>
