<svg width="75" height="75" viewBox="0 0 61 62" fill="none" xmlns="http://www.w3.org/2000/svg">
<path d="M59.2422 0.329375C59.5571 0.50622 59.8152 0.745431 59.9939 1.02589C60.1726 1.30635 60.2663 1.61943 60.2668 1.9375V31C60.2667 31.3869 60.1286 31.765 59.8703 32.0854C59.612 32.4059 59.2453 32.6541 58.8176 32.798L57.9591 31L58.8176 32.798L58.8037 32.8019L58.776 32.8135L58.6699 32.8484C58.0631 33.0509 57.4522 33.2446 56.8376 33.4296C55.6191 33.7977 53.9252 34.2938 52.0052 34.7859C48.2391 35.7624 43.3329 36.8125 39.4976 36.8125C35.5883 36.8125 32.3529 35.7275 29.5376 34.7781L29.4083 34.7394C26.4822 33.7513 23.9899 32.9375 21.036 32.9375C17.8052 32.9375 13.476 33.8288 9.78832 34.7859C8.13719 35.2179 6.50114 35.6896 4.88217 36.2002V60.0625C4.88217 60.5764 4.63904 61.0692 4.20626 61.4325C3.77349 61.7959 3.18652 62 2.57448 62C1.96244 62 1.37547 61.7959 0.942693 61.4325C0.509916 61.0692 0.266785 60.5764 0.266785 60.0625V1.9375C0.266785 1.42364 0.509916 0.930832 0.942693 0.567481C1.37547 0.204129 1.96244 0 2.57448 0C3.18652 0 3.77349 0.204129 4.20626 0.567481C4.63904 0.930832 4.88217 1.42364 4.88217 1.9375V3.03025C5.92525 2.72412 7.1714 2.3715 8.52832 2.02275C12.2945 1.054 17.2052 0 21.036 0C24.9129 0 28.0699 1.07337 30.8252 2.01113L31.0237 2.08087C33.8945 3.0535 36.396 3.875 39.4976 3.875C42.7283 3.875 47.0576 2.98375 50.7452 2.02662C52.8467 1.47565 54.9235 0.860404 56.9714 0.182125L57.0591 0.155L57.0776 0.14725H57.0822" fill="#39619B"/>
</svg>
