<svg width="25" height="25" viewBox="0 0 20 27" fill="none" xmlns="http://www.w3.org/2000/svg">
<path d="M24.5731 0.159375C24.7043 0.244945 24.8119 0.360692 24.8863 0.496399C24.9608 0.632105 24.9998 0.783597 25 0.9375V15C25 15.1872 24.9424 15.3701 24.8348 15.5252C24.7272 15.6803 24.5744 15.8004 24.3962 15.87L24.0385 15L24.3962 15.87L24.3904 15.8719L24.3788 15.8775L24.3346 15.8944C24.0818 15.9924 23.8273 16.0861 23.5712 16.1756C23.0635 16.3538 22.3577 16.5938 21.5577 16.8319C19.9885 17.3044 17.9442 17.8125 16.3462 17.8125C14.7173 17.8125 13.3692 17.2875 12.1962 16.8281L12.1423 16.8094C10.9231 16.3313 9.88461 15.9375 8.65385 15.9375C7.30769 15.9375 5.50385 16.3687 3.96731 16.8319C3.27934 17.0409 2.59765 17.2691 1.92308 17.5163V29.0625C1.92308 29.3111 1.82177 29.5496 1.64145 29.7254C1.46113 29.9012 1.21655 30 0.961538 30C0.706523 30 0.461952 29.9012 0.281628 29.7254C0.101305 29.5496 0 29.3111 0 29.0625V0.9375C0 0.68886 0.101305 0.450403 0.281628 0.274587C0.461952 0.098772 0.706523 0 0.961538 0C1.21655 0 1.46113 0.098772 1.64145 0.274587C1.82177 0.450403 1.92308 0.68886 1.92308 0.9375V1.46625C2.35769 1.31813 2.87692 1.1475 3.44231 0.97875C5.01154 0.51 7.05769 0 8.65385 0C10.2692 0 11.5846 0.519375 12.7327 0.973125L12.8154 1.00688C14.0115 1.4775 15.0538 1.875 16.3462 1.875C17.6923 1.875 19.4962 1.44375 21.0327 0.980625C21.9083 0.714023 22.7736 0.416324 23.6269 0.088125L23.6635 0.075L23.6712 0.07125H23.6731" fill="#39619B"/>
</svg>
