<svg width="21" height="21" viewBox="0 0 21 21" fill="none" xmlns="http://www.w3.org/2000/svg">
<path fill-rule="evenodd" clip-rule="evenodd" d="M10.5 19.875C15.6776 19.875 19.875 15.6776 19.875 10.5C19.875 5.3224 15.6776 1.125 10.5 1.125C5.32238 1.125 1.12498 5.3224 1.12498 10.5C1.12498 15.6776 5.32238 19.875 10.5 19.875ZM10.5 20.9167C16.2531 20.9167 20.9166 16.2531 20.9166 10.5C20.9166 4.74688 16.2531 0.0833359 10.5 0.0833359C4.74686 0.0833359 0.083313 4.74688 0.083313 10.5C0.083313 16.2531 4.74686 20.9167 10.5 20.9167Z" fill="black"/>
<path d="M4.25 16.5573C4.25 16.0193 4.65208 15.5646 5.1875 15.5052C9.20573 15.0604 11.8125 15.1005 15.8219 15.5151C16.0221 15.5361 16.2118 15.615 16.368 15.7421C16.5241 15.8692 16.6398 16.039 16.701 16.2308C16.7622 16.4226 16.7663 16.628 16.7126 16.8221C16.659 17.0161 16.55 17.1903 16.399 17.3234C11.6672 21.4479 8.96302 21.3911 4.58333 17.3276C4.36979 17.1297 4.25 16.8484 4.25 16.5578V16.5573Z" fill="black"/>
<path fill-rule="evenodd" clip-rule="evenodd" d="M15.7682 16.0328C11.7906 15.6214 9.22132 15.5828 5.24423 16.0229C5.11332 16.0382 4.99263 16.1012 4.90528 16.1999C4.81792 16.2986 4.77004 16.426 4.7708 16.5578C4.7708 16.7068 4.83277 16.8479 4.93746 16.9458C7.1083 18.9594 8.75309 19.8693 10.3609 19.875C11.9744 19.8807 13.7078 18.9781 16.0567 16.9313C16.1314 16.8648 16.1851 16.7782 16.2114 16.6818C16.2377 16.5854 16.2354 16.4835 16.2048 16.3884C16.1743 16.2932 16.1167 16.2091 16.0392 16.146C15.9617 16.083 15.8675 16.0439 15.7682 16.0333V16.0328ZM5.13017 14.9875C9.19059 14.538 11.8354 14.5787 15.876 14.9969C16.1772 15.0283 16.4627 15.1469 16.6975 15.3381C16.9324 15.5293 17.1064 15.7848 17.1983 16.0734C17.2901 16.362 17.2958 16.671 17.2147 16.9628C17.1336 17.2546 16.9692 17.5164 16.7416 17.7162C14.3588 19.7932 12.3744 20.9245 10.3578 20.9167C8.33538 20.9094 6.4385 19.7589 4.22965 17.7094C4.0715 17.5621 3.94543 17.3837 3.85931 17.1855C3.77319 16.9873 3.72887 16.7734 3.72913 16.5573C3.72837 16.169 3.8709 15.794 4.12942 15.5043C4.38794 15.2145 4.74428 15.0303 5.13017 14.987V14.9875Z" fill="black"/>
<path d="M14.6666 8.41667C14.6666 9.52174 14.2277 10.5815 13.4463 11.3629C12.6649 12.1443 11.605 12.5833 10.5 12.5833C9.39491 12.5833 8.3351 12.1443 7.5537 11.3629C6.7723 10.5815 6.33331 9.52174 6.33331 8.41667C6.33331 7.3116 6.7723 6.25179 7.5537 5.47039C8.3351 4.68899 9.39491 4.25 10.5 4.25C11.605 4.25 12.6649 4.68899 13.4463 5.47039C14.2277 6.25179 14.6666 7.3116 14.6666 8.41667V8.41667Z" fill="black"/>
<path fill-rule="evenodd" clip-rule="evenodd" d="M10.5 11.5417C11.3288 11.5417 12.1236 11.2124 12.7097 10.6264C13.2957 10.0403 13.625 9.24547 13.625 8.41667C13.625 7.58787 13.2957 6.79301 12.7097 6.20696C12.1236 5.62091 11.3288 5.29167 10.5 5.29167C9.67118 5.29167 8.87632 5.62091 8.29027 6.20696C7.70422 6.79301 7.37498 7.58787 7.37498 8.41667C7.37498 9.24547 7.70422 10.0403 8.29027 10.6264C8.87632 11.2124 9.67118 11.5417 10.5 11.5417V11.5417ZM10.5 12.5833C11.605 12.5833 12.6649 12.1443 13.4463 11.3629C14.2277 10.5815 14.6666 9.52174 14.6666 8.41667C14.6666 7.3116 14.2277 6.25179 13.4463 5.47039C12.6649 4.68899 11.605 4.25 10.5 4.25C9.39491 4.25 8.3351 4.68899 7.5537 5.47039C6.7723 6.25179 6.33331 7.3116 6.33331 8.41667C6.33331 9.52174 6.7723 10.5815 7.5537 11.3629C8.3351 12.1443 9.39491 12.5833 10.5 12.5833V12.5833Z" fill="black"/>
</svg>
