<svg width="156" height="31.5" viewBox="0 0 208 42" fill="none" xmlns="http://www.w3.org/2000/svg">
<path d="M38.1238 12.1971C37.5176 10.7391 36.6436 9.41778 35.5506 8.30725C34.4567 7.19341 33.1671 6.30826 31.7518 5.69992C30.2841 5.06661 28.71 4.74245 27.1208 4.74625C24.8913 4.74625 22.716 5.38046 20.8256 6.57843C20.3734 6.865 19.9438 7.17976 19.5368 7.5227C19.1297 7.17976 18.7001 6.865 18.2479 6.57843C16.3575 5.38046 14.1822 4.74625 11.9527 4.74625C10.3472 4.74625 8.79154 5.06571 7.32176 5.69992C5.90173 6.31065 4.62189 7.18915 3.52295 8.30725C2.42851 9.41653 1.55425 10.7381 0.949704 12.1971C0.32109 13.7145 0 15.3259 0 16.9843C0 18.5487 0.307523 20.1788 0.918047 21.8372C1.42908 23.2231 2.16171 24.6606 3.09784 26.1123C4.58119 28.4095 6.62079 30.8055 9.15333 33.2343C13.3501 37.2604 17.5062 40.0415 17.6826 40.1543L18.7544 40.8684C19.2292 41.1831 19.8398 41.1831 20.3146 40.8684L21.3864 40.1543C21.5628 40.0368 25.7144 37.2604 29.9157 33.2343C32.4482 30.8055 34.4878 28.4095 35.9712 26.1123C36.9073 24.6606 37.6444 23.2231 38.1509 21.8372C38.7615 20.1788 39.069 18.5487 39.069 16.9843C39.0735 15.3259 38.7524 13.7145 38.1238 12.1971ZM19.5368 37.1523C19.5368 37.1523 3.43702 26.4364 3.43702 16.9843C3.43702 12.1971 7.2494 8.31665 11.9527 8.31665C15.2586 8.31665 18.1258 10.2334 19.5368 13.0333C20.9477 10.2334 23.8149 8.31665 27.1208 8.31665C31.8241 8.31665 35.6365 12.1971 35.6365 16.9843C35.6365 26.4364 19.5368 37.1523 19.5368 37.1523Z" fill="#E1AD01"/>
<path d="M61.6657 31.3C59.8057 31.3 58.2457 31.03 56.9857 30.49C55.7457 29.93 54.7957 29.21 54.1357 28.33C53.4957 27.43 53.1557 26.49 53.1157 25.51C53.1157 25.33 53.1757 25.18 53.2957 25.06C53.4157 24.94 53.5657 24.88 53.7457 24.88H56.4157C56.6757 24.88 56.8657 24.94 56.9857 25.06C57.1257 25.16 57.2457 25.29 57.3457 25.45C57.4657 25.83 57.6957 26.21 58.0357 26.59C58.3757 26.95 58.8357 27.25 59.4157 27.49C60.0157 27.73 60.7657 27.85 61.6657 27.85C63.1057 27.85 64.1757 27.61 64.8757 27.13C65.5957 26.65 65.9557 26 65.9557 25.18C65.9557 24.6 65.7657 24.14 65.3857 23.8C65.0057 23.44 64.4157 23.12 63.6157 22.84C62.8357 22.54 61.7957 22.23 60.4957 21.91C58.9957 21.55 57.7357 21.12 56.7157 20.62C55.7157 20.1 54.9557 19.45 54.4357 18.67C53.9357 17.89 53.6857 16.9 53.6857 15.7C53.6857 14.54 53.9957 13.51 54.6157 12.61C55.2557 11.71 56.1557 11 57.3157 10.48C58.4957 9.96 59.8957 9.7 61.5157 9.7C62.8157 9.7 63.9657 9.88 64.9657 10.24C65.9657 10.58 66.7957 11.04 67.4557 11.62C68.1157 12.18 68.6157 12.79 68.9557 13.45C69.3157 14.09 69.5057 14.72 69.5257 15.34C69.5257 15.5 69.4657 15.65 69.3457 15.79C69.2457 15.91 69.0957 15.97 68.8957 15.97H66.1057C65.9457 15.97 65.7857 15.93 65.6257 15.85C65.4657 15.77 65.3357 15.62 65.2357 15.4C65.1157 14.78 64.7257 14.25 64.0657 13.81C63.4057 13.37 62.5557 13.15 61.5157 13.15C60.4357 13.15 59.5657 13.35 58.9057 13.75C58.2457 14.15 57.9157 14.77 57.9157 15.61C57.9157 16.17 58.0757 16.64 58.3957 17.02C58.7357 17.38 59.2657 17.7 59.9857 17.98C60.7257 18.26 61.6957 18.56 62.8957 18.88C64.5957 19.26 65.9857 19.7 67.0657 20.2C68.1457 20.7 68.9357 21.34 69.4357 22.12C69.9357 22.88 70.1857 23.85 70.1857 25.03C70.1857 26.35 69.8257 27.48 69.1057 28.42C68.4057 29.34 67.4157 30.05 66.1357 30.55C64.8557 31.05 63.3657 31.3 61.6657 31.3ZM76.3838 31C76.1838 31 76.0138 30.93 75.8738 30.79C75.7338 30.65 75.6638 30.48 75.6638 30.28V16.12C75.6638 15.92 75.7338 15.75 75.8738 15.61C76.0138 15.47 76.1838 15.4 76.3838 15.4H78.8738C79.0938 15.4 79.2638 15.47 79.3838 15.61C79.5238 15.75 79.5938 15.92 79.5938 16.12V30.28C79.5938 30.48 79.5238 30.65 79.3838 30.79C79.2638 30.93 79.0938 31 78.8738 31H76.3838ZM76.2638 12.82C76.0438 12.82 75.8638 12.76 75.7238 12.64C75.6038 12.5 75.5438 12.32 75.5438 12.1V9.94C75.5438 9.74 75.6038 9.57 75.7238 9.43C75.8638 9.29 76.0438 9.22 76.2638 9.22H78.9938C79.2138 9.22 79.3938 9.29 79.5338 9.43C79.6738 9.57 79.7438 9.74 79.7438 9.94V12.1C79.7438 12.32 79.6738 12.5 79.5338 12.64C79.3938 12.76 79.2138 12.82 78.9938 12.82H76.2638ZM86.7239 31C86.5239 31 86.3539 30.93 86.2139 30.79C86.0739 30.65 86.0039 30.48 86.0039 30.28V10.42C86.0039 10.22 86.0739 10.05 86.2139 9.91C86.3539 9.77 86.5239 9.7 86.7239 9.7H89.2139C89.4139 9.7 89.5839 9.77 89.7239 9.91C89.8639 10.05 89.9339 10.22 89.9339 10.42V30.28C89.9339 30.48 89.8639 30.65 89.7239 30.79C89.5839 30.93 89.4139 31 89.2139 31H86.7239ZM101.833 31C101.513 31 101.273 30.93 101.113 30.79C100.973 30.63 100.853 30.45 100.753 30.25L95.1434 16.33C95.1034 16.23 95.0834 16.14 95.0834 16.06C95.0834 15.88 95.1434 15.73 95.2634 15.61C95.4034 15.47 95.5634 15.4 95.7434 15.4H98.1734C98.4134 15.4 98.5934 15.47 98.7134 15.61C98.8334 15.73 98.9134 15.85 98.9534 15.97L102.943 26.5L106.933 15.97C106.973 15.85 107.053 15.73 107.173 15.61C107.293 15.47 107.473 15.4 107.713 15.4H110.173C110.333 15.4 110.473 15.47 110.593 15.61C110.733 15.73 110.803 15.88 110.803 16.06C110.803 16.14 110.793 16.23 110.773 16.33L105.133 30.25C105.053 30.45 104.933 30.63 104.773 30.79C104.613 30.93 104.373 31 104.053 31H101.833ZM122.103 31.3C119.883 31.3 118.123 30.66 116.823 29.38C115.523 28.1 114.823 26.28 114.723 23.92C114.703 23.72 114.693 23.47 114.693 23.17C114.693 22.85 114.703 22.6 114.723 22.42C114.803 20.92 115.143 19.62 115.743 18.52C116.363 17.42 117.213 16.58 118.293 16C119.373 15.4 120.643 15.1 122.103 15.1C123.723 15.1 125.083 15.44 126.183 16.12C127.283 16.78 128.113 17.71 128.673 18.91C129.233 20.09 129.513 21.46 129.513 23.02V23.65C129.513 23.85 129.443 24.02 129.303 24.16C129.163 24.3 128.983 24.37 128.763 24.37H118.803C118.803 24.37 118.803 24.4 118.803 24.46C118.803 24.52 118.803 24.57 118.803 24.61C118.823 25.31 118.953 25.96 119.193 26.56C119.453 27.14 119.823 27.61 120.303 27.97C120.803 28.33 121.393 28.51 122.073 28.51C122.633 28.51 123.103 28.43 123.483 28.27C123.863 28.09 124.173 27.89 124.413 27.67C124.653 27.45 124.823 27.27 124.923 27.13C125.103 26.89 125.243 26.75 125.343 26.71C125.463 26.65 125.633 26.62 125.853 26.62H128.433C128.633 26.62 128.793 26.68 128.913 26.8C129.053 26.92 129.113 27.07 129.093 27.25C129.073 27.57 128.903 27.96 128.583 28.42C128.283 28.88 127.843 29.33 127.263 29.77C126.683 30.21 125.953 30.58 125.073 30.88C124.213 31.16 123.223 31.3 122.103 31.3ZM118.803 21.85H125.433V21.76C125.433 20.98 125.303 20.3 125.043 19.72C124.783 19.14 124.403 18.68 123.903 18.34C123.403 18 122.803 17.83 122.103 17.83C121.403 17.83 120.803 18 120.303 18.34C119.803 18.68 119.423 19.14 119.163 19.72C118.923 20.3 118.803 20.98 118.803 21.76V21.85ZM135.818 31C135.618 31 135.448 30.93 135.308 30.79C135.168 30.65 135.098 30.48 135.098 30.28V16.15C135.098 15.93 135.168 15.75 135.308 15.61C135.448 15.47 135.618 15.4 135.818 15.4H138.248C138.448 15.4 138.618 15.47 138.758 15.61C138.918 15.75 138.998 15.93 138.998 16.15V17.38C139.458 16.74 140.048 16.25 140.768 15.91C141.508 15.57 142.358 15.4 143.318 15.4H144.548C144.768 15.4 144.938 15.47 145.058 15.61C145.198 15.75 145.268 15.92 145.268 16.12V18.28C145.268 18.48 145.198 18.65 145.058 18.79C144.938 18.93 144.768 19 144.548 19H142.208C141.248 19 140.498 19.27 139.958 19.81C139.438 20.35 139.178 21.09 139.178 22.03V30.28C139.178 30.48 139.108 30.65 138.968 30.79C138.828 30.93 138.648 31 138.428 31H135.818Z" fill="#E1AD01"/>
<path d="M151.088 31C150.888 31 150.718 30.93 150.578 30.79C150.438 30.65 150.368 30.48 150.368 30.28V10.75C150.368 10.53 150.438 10.35 150.578 10.21C150.718 10.07 150.888 10 151.088 10H164.108C164.328 10 164.508 10.07 164.648 10.21C164.788 10.35 164.858 10.53 164.858 10.75V12.85C164.858 13.07 164.788 13.25 164.648 13.39C164.508 13.51 164.328 13.57 164.108 13.57H154.478V19.27H163.508C163.728 19.27 163.908 19.34 164.048 19.48C164.188 19.62 164.258 19.8 164.258 20.02V22.12C164.258 22.32 164.188 22.49 164.048 22.63C163.908 22.77 163.728 22.84 163.508 22.84H154.478V30.28C154.478 30.48 154.408 30.65 154.268 30.79C154.128 30.93 153.948 31 153.728 31H151.088ZM175.981 31.3C174.761 31.3 173.701 31.03 172.801 30.49C171.921 29.93 171.241 29.15 170.761 28.15C170.281 27.13 170.041 25.93 170.041 24.55V16.12C170.041 15.92 170.111 15.75 170.251 15.61C170.391 15.47 170.561 15.4 170.761 15.4H173.401C173.621 15.4 173.791 15.47 173.911 15.61C174.051 15.75 174.121 15.92 174.121 16.12V24.37C174.121 26.85 175.211 28.09 177.391 28.09C178.431 28.09 179.251 27.76 179.851 27.1C180.471 26.44 180.781 25.53 180.781 24.37V16.12C180.781 15.92 180.851 15.75 180.991 15.61C181.131 15.47 181.301 15.4 181.501 15.4H184.141C184.341 15.4 184.511 15.47 184.651 15.61C184.791 15.75 184.861 15.92 184.861 16.12V30.28C184.861 30.48 184.791 30.65 184.651 30.79C184.511 30.93 184.341 31 184.141 31H181.711C181.491 31 181.311 30.93 181.171 30.79C181.051 30.65 180.991 30.48 180.991 30.28V29.05C180.451 29.75 179.781 30.3 178.981 30.7C178.181 31.1 177.181 31.3 175.981 31.3ZM191.944 31C191.744 31 191.574 30.93 191.434 30.79C191.294 30.65 191.224 30.48 191.224 30.28V16.12C191.224 15.92 191.294 15.75 191.434 15.61C191.574 15.47 191.744 15.4 191.944 15.4H194.404C194.604 15.4 194.774 15.47 194.914 15.61C195.054 15.75 195.124 15.92 195.124 16.12V17.35C195.644 16.71 196.304 16.18 197.104 15.76C197.924 15.32 198.934 15.1 200.134 15.1C201.354 15.1 202.414 15.38 203.314 15.94C204.214 16.48 204.904 17.25 205.384 18.25C205.884 19.25 206.134 20.45 206.134 21.85V30.28C206.134 30.48 206.064 30.65 205.924 30.79C205.784 30.93 205.614 31 205.414 31H202.774C202.574 31 202.404 30.93 202.264 30.79C202.124 30.65 202.054 30.48 202.054 30.28V22.03C202.054 20.87 201.764 19.96 201.184 19.3C200.624 18.64 199.804 18.31 198.724 18.31C197.684 18.31 196.854 18.64 196.234 19.3C195.614 19.96 195.304 20.87 195.304 22.03V30.28C195.304 30.48 195.234 30.65 195.094 30.79C194.954 30.93 194.784 31 194.584 31H191.944Z" fill="black"/>
</svg>
